<?xml version="1.0" encoding="UTF-8" standalone="no"?>
<svg width="16" height="16" viewBox="0 0 32 32" fill="none" xmlns="http://www.w3.org/2000/svg">
  <!-- Background -->
  <rect width="32" height="32" rx="4" fill="url(#gradient)" />
  
  <!-- Train Icon -->
  <path d="M22 10H10C8.34 10 7 11.34 7 13V22C7 23.66 8.34 25 10 25H22C23.66 25 25 23.66 25 22V13C25 11.34 23.66 10 22 10Z" fill="white" />
  <path d="M21 15H11V13C11 12.45 11.45 12 12 12H20C20.55 12 21 12.45 21 13V15Z" fill="#3B82F6" />
  <path d="M11 17H21V20H11V17Z" fill="#3B82F6" />
  <circle cx="12.5" cy="22.5" r="1.5" fill="#1E293B" />
  <circle cx="19.5" cy="22.5" r="1.5" fill="#1E293B" />
  
  <!-- Track -->
  <rect x="7" y="25" width="18" height="1" rx="0.5" fill="#1E293B" />
  <rect x="8" y="26" width="16" height="1" rx="0.5" fill="#1E293B" />
  
  <!-- Gradient Definition -->
  <defs>
    <linearGradient id="gradient" x1="0" y1="0" x2="32" y2="32" gradientUnits="userSpaceOnUse">
      <stop offset="0%" stop-color="#3B82F6" />
      <stop offset="100%" stop-color="#8B5CF6" />
    </linearGradient>
  </defs>
</svg>